<svg width="20" height="17" viewBox="0 0 20 17" fill="none" xmlns="http://www.w3.org/2000/svg">
<path d="M18.35 3.51998L14.35 6.37998C13.82 6.75998 13.06 6.52998 12.83 5.91998L10.94 0.879978C10.62 0.00997806 9.38997 0.00997806 9.06997 0.879978L7.16998 5.90998C6.93998 6.52998 6.18997 6.75998 5.65998 6.36998L1.65998 3.50998C0.859975 2.94998 -0.200025 3.73998 0.129975 4.66998L4.28998 16.32C4.42998 16.72 4.80998 16.98 5.22998 16.98H14.76C15.18 16.98 15.56 16.71 15.7 16.32L19.86 4.66998C20.2 3.73998 19.14 2.94998 18.35 3.51998ZM12.5 12.75H7.49998C7.08998 12.75 6.74998 12.41 6.74998 12C6.74998 11.59 7.08998 11.25 7.49998 11.25H12.5C12.91 11.25 13.25 11.59 13.25 12C13.25 12.41 12.91 12.75 12.5 12.75Z" fill="white"/>
</svg>
